<svg width="56" height="56" viewBox="0 0 56 56" fill="none" xmlns="http://www.w3.org/2000/svg">
<circle cx="28" cy="28" r="28" fill="#F8F4DB"/>
<mask id="mask0_118_202" style="mask-type:alpha" maskUnits="userSpaceOnUse" x="1" y="0" width="55" height="55">
<rect x="21" width="40" height="40" transform="rotate(30 21 0)" fill="#D9D9D9"/>
</mask>
<g mask="url(#mask0_118_202)">
<path d="M29.8903 24.6666C31.1545 25.3964 32.483 25.5736 33.876 25.1981C35.2691 24.8224 36.3306 24.0025 37.0605 22.7383C37.7903 21.4742 37.9673 20.1456 37.5915 18.7528C37.216 17.3598 36.3962 16.2984 35.132 15.5685C33.8678 14.8387 32.5393 14.6615 31.1463 15.037C29.7534 15.4128 28.6921 16.2328 27.9622 17.497C27.2323 18.7611 27.0552 20.0896 27.4308 21.4823C27.8066 22.8754 28.6264 23.9369 29.8903 24.6666ZM19.5105 42.7782C19.3491 42.685 19.2153 42.5729 19.109 42.442C19.0026 42.3113 18.92 42.1487 18.8613 41.9544L17.19 36.21C17.1312 36.0157 17.1099 35.835 17.1262 35.668C17.1424 35.501 17.1928 35.3351 17.2774 35.1703C17.3619 35.0051 17.4707 34.8674 17.6038 34.7573C17.7372 34.647 17.901 34.5624 18.0953 34.5037L21.6333 33.4031L20.7287 30.0258C20.6742 29.8235 20.661 29.638 20.6891 29.4694C20.7167 29.301 20.7762 29.1376 20.8676 28.9793C20.959 28.821 21.0701 28.6888 21.2009 28.5828C21.3316 28.4764 21.4982 28.3962 21.7007 28.3421L24.5844 27.5692L25.1261 26.631C23.6376 25.098 22.7763 23.275 22.5424 21.1618C22.3083 19.0489 22.7445 17.0342 23.8511 15.1177C25.24 12.712 27.2625 11.1534 29.9186 10.4416C32.5748 9.72992 35.1057 10.0685 37.5113 11.4574C39.917 12.8463 41.4756 14.8688 42.1873 17.525C42.8991 20.1811 42.5605 22.712 41.1716 25.1177C40.0095 27.1304 38.4648 28.5187 36.5376 29.2824C34.6105 30.0462 32.635 30.2179 30.6109 29.7976L23.7915 41.6091C23.7029 41.7626 23.589 41.8951 23.4499 42.0066C23.3108 42.1181 23.14 42.2009 22.9375 42.2549L20.5362 42.8984C20.3412 42.9506 20.1618 42.9671 19.9982 42.9477C19.8345 42.9279 19.672 42.8714 19.5105 42.7782Z" fill="url(#paint0_linear_118_202)"/>
</g>
<defs>
<linearGradient id="paint0_linear_118_202" x1="32" y1="6.40007" x2="22.9" y2="53.6001" gradientUnits="userSpaceOnUse">
<stop stop-color="#E9D169"/>
<stop offset="1" stop-color="#865044"/>
</linearGradient>
</defs>
</svg>
